solid OpenSCAD_Model
  facet normal -1 -0 0
    outer loop
      vertex -2000 2081.01 2733.78
      vertex -2000 2076.14 2699.12
      vertex -2000 -1998.9 3307.17
    endloop
  endfacet
  facet normal -1 0 0
    outer loop
      vertex -2000 2076.14 2699.12
      vertex -2000 -2003.77 3272.51
      vertex -2000 -1998.9 3307.17
    endloop
  endfacet
  facet normal 1 0 0
    outer loop
      vertex 2000 -1998.9 3307.17
      vertex 2000 2076.14 2699.12
      vertex 2000 2081.01 2733.78
    endloop
  endfacet
  facet normal 1 0 0
    outer loop
      vertex 2000 -1998.9 3307.17
      vertex 2000 -2003.77 3272.51
      vertex 2000 2076.14 2699.12
    endloop
  endfacet
  facet normal 0 0.990273 -0.139141
    outer loop
      vertex -2000 2081.01 2733.78
      vertex 2000 2076.14 2699.12
      vertex -2000 2076.14 2699.12
    endloop
  endfacet
  facet normal 0 0.990273 -0.139141
    outer loop
      vertex -2000 2081.01 2733.78
      vertex 2000 2081.01 2733.78
      vertex 2000 2076.14 2699.12
    endloop
  endfacet
  facet normal 0 0.139172 0.990268
    outer loop
      vertex -2000 -1998.9 3307.17
      vertex 2000 2081.01 2733.78
      vertex -2000 2081.01 2733.78
    endloop
  endfacet
  facet normal -0 0.139172 0.990268
    outer loop
      vertex -2000 -1998.9 3307.17
      vertex 2000 -1998.9 3307.17
      vertex 2000 2081.01 2733.78
    endloop
  endfacet
  facet normal 0 -0.990273 0.139141
    outer loop
      vertex -2000 -2003.77 3272.51
      vertex 2000 -1998.9 3307.17
      vertex -2000 -1998.9 3307.17
    endloop
  endfacet
  facet normal 0 -0.990273 0.139141
    outer loop
      vertex -2000 -2003.77 3272.51
      vertex 2000 -2003.77 3272.51
      vertex 2000 -1998.9 3307.17
    endloop
  endfacet
  facet normal 0 -0.139172 -0.990268
    outer loop
      vertex -2000 2076.14 2699.12
      vertex 2000 -2003.77 3272.51
      vertex -2000 -2003.77 3272.51
    endloop
  endfacet
  facet normal 0 -0.139172 -0.990268
    outer loop
      vertex -2000 2076.14 2699.12
      vertex 2000 2076.14 2699.12
      vertex 2000 -2003.77 3272.51
    endloop
  endfacet
endsolid OpenSCAD_Model
