solid OpenSCAD_Model
  facet normal 1 -0 0
    outer loop
      vertex 1104 1104 2200
      vertex 1104 1107 400
      vertex 1104 1107 2200
    endloop
  endfacet
  facet normal 1 0 0
    outer loop
      vertex 1104 1107 400
      vertex 1104 1104 2200
      vertex 1104 1104 400
    endloop
  endfacet
  facet normal 0 0 1
    outer loop
      vertex -1107 -1104 2200
      vertex -1101 -1101 2200
      vertex -1107 1104 2200
    endloop
  endfacet
  facet normal 0 0 1
    outer loop
      vertex -1101 -1101 2200
      vertex -1107 -1104 2200
      vertex -1104 -1104 2200
    endloop
  endfacet
  facet normal 0 0 1
    outer loop
      vertex 1101 1101 2200
      vertex 1104 1104 2200
      vertex 1104 1107 2200
    endloop
  endfacet
  facet normal 0 0 1
    outer loop
      vertex 1104 1104 2200
      vertex 1101 1101 2200
      vertex 1104 -1104 2200
    endloop
  endfacet
  facet normal -0 0 1
    outer loop
      vertex 1101 -1101 2200
      vertex 1104 -1104 2200
      vertex 1101 1101 2200
    endloop
  endfacet
  facet normal 0 0 1
    outer loop
      vertex 1104 1107 2200
      vertex -1101 1101 2200
      vertex 1101 1101 2200
    endloop
  endfacet
  facet normal -0 0 1
    outer loop
      vertex -1104 1104 2200
      vertex -1101 1101 2200
      vertex -1104 1107 2200
    endloop
  endfacet
  facet normal -0 0 1
    outer loop
      vertex -1104 1107 2200
      vertex -1101 1101 2200
      vertex 1104 1107 2200
    endloop
  endfacet
  facet normal -0 0 1
    outer loop
      vertex 1104 1104 2200
      vertex 1107 -1104 2200
      vertex 1107 1104 2200
    endloop
  endfacet
  facet normal 0 0 1
    outer loop
      vertex 1107 -1104 2200
      vertex 1104 1104 2200
      vertex 1104 -1104 2200
    endloop
  endfacet
  facet normal 0 0 1
    outer loop
      vertex 1104 -1104 2200
      vertex 1101 -1101 2200
      vertex 1104 -1107 2200
    endloop
  endfacet
  facet normal -0 0 1
    outer loop
      vertex -1101 -1101 2200
      vertex 1104 -1107 2200
      vertex 1101 -1101 2200
    endloop
  endfacet
  facet normal -0 0 1
    outer loop
      vertex -1107 1104 2200
      vertex -1101 1101 2200
      vertex -1104 1104 2200
    endloop
  endfacet
  facet normal 0 0 1
    outer loop
      vertex -1101 1101 2200
      vertex -1107 1104 2200
      vertex -1101 -1101 2200
    endloop
  endfacet
  facet normal 0 0 1
    outer loop
      vertex -1104 -1107 2200
      vertex -1101 -1101 2200
      vertex -1104 -1104 2200
    endloop
  endfacet
  facet normal 0 0 1
    outer loop
      vertex -1101 -1101 2200
      vertex -1104 -1107 2200
      vertex 1104 -1107 2200
    endloop
  endfacet
  facet normal 0 0 -1
    outer loop
      vertex -1107 1104 400
      vertex -1101 1101 400
      vertex -1107 -1104 400
    endloop
  endfacet
  facet normal 0 0 -1
    outer loop
      vertex -1101 1101 400
      vertex -1107 1104 400
      vertex -1104 1104 400
    endloop
  endfacet
  facet normal 0 0 -1
    outer loop
      vertex 1101 -1101 400
      vertex 1104 -1104 400
      vertex 1104 -1107 400
    endloop
  endfacet
  facet normal 0 0 -1
    outer loop
      vertex 1104 -1104 400
      vertex 1101 -1101 400
      vertex 1104 1104 400
    endloop
  endfacet
  facet normal 0 0 -1
    outer loop
      vertex 1101 1101 400
      vertex 1104 1104 400
      vertex 1101 -1101 400
    endloop
  endfacet
  facet normal 0 0 -1
    outer loop
      vertex 1104 -1107 400
      vertex -1101 -1101 400
      vertex 1101 -1101 400
    endloop
  endfacet
  facet normal 0 0 -1
    outer loop
      vertex -1104 -1104 400
      vertex -1101 -1101 400
      vertex -1104 -1107 400
    endloop
  endfacet
  facet normal 0 0 -1
    outer loop
      vertex -1104 -1107 400
      vertex -1101 -1101 400
      vertex 1104 -1107 400
    endloop
  endfacet
  facet normal 0 0 -1
    outer loop
      vertex 1104 -1104 400
      vertex 1107 1104 400
      vertex 1107 -1104 400
    endloop
  endfacet
  facet normal -0 0 -1
    outer loop
      vertex 1107 1104 400
      vertex 1104 -1104 400
      vertex 1104 1104 400
    endloop
  endfacet
  facet normal -0 0 -1
    outer loop
      vertex 1104 1104 400
      vertex 1101 1101 400
      vertex 1104 1107 400
    endloop
  endfacet
  facet normal 0 0 -1
    outer loop
      vertex -1101 1101 400
      vertex 1104 1107 400
      vertex 1101 1101 400
    endloop
  endfacet
  facet normal 0 0 -1
    outer loop
      vertex -1107 -1104 400
      vertex -1101 -1101 400
      vertex -1104 -1104 400
    endloop
  endfacet
  facet normal -0 0 -1
    outer loop
      vertex -1101 -1101 400
      vertex -1107 -1104 400
      vertex -1101 1101 400
    endloop
  endfacet
  facet normal 0 0 -1
    outer loop
      vertex -1104 1107 400
      vertex -1101 1101 400
      vertex -1104 1104 400
    endloop
  endfacet
  facet normal 0 0 -1
    outer loop
      vertex -1101 1101 400
      vertex -1104 1107 400
      vertex 1104 1107 400
    endloop
  endfacet
  facet normal -1 0 0
    outer loop
      vertex -1104 1104 400
      vertex -1104 1107 2200
      vertex -1104 1107 400
    endloop
  endfacet
  facet normal -1 -0 0
    outer loop
      vertex -1104 1107 2200
      vertex -1104 1104 400
      vertex -1104 1104 2200
    endloop
  endfacet
  facet normal 0 1 -0
    outer loop
      vertex 1104 1107 400
      vertex -1104 1107 2200
      vertex 1104 1107 2200
    endloop
  endfacet
  facet normal 0 1 0
    outer loop
      vertex -1104 1107 2200
      vertex 1104 1107 400
      vertex -1104 1107 400
    endloop
  endfacet
  facet normal 0 -1 0
    outer loop
      vertex -1101 1101 400
      vertex 1101 1101 2200
      vertex -1101 1101 2200
    endloop
  endfacet
  facet normal 0 -1 -0
    outer loop
      vertex 1101 1101 2200
      vertex -1101 1101 400
      vertex 1101 1101 400
    endloop
  endfacet
  facet normal 0 -1 0
    outer loop
      vertex -1107 -1104 400
      vertex -1104 -1104 2200
      vertex -1107 -1104 2200
    endloop
  endfacet
  facet normal 0 -1 -0
    outer loop
      vertex -1104 -1104 2200
      vertex -1107 -1104 400
      vertex -1104 -1104 400
    endloop
  endfacet
  facet normal -1 0 0
    outer loop
      vertex -1107 -1104 400
      vertex -1107 1104 2200
      vertex -1107 1104 400
    endloop
  endfacet
  facet normal -1 -0 0
    outer loop
      vertex -1107 1104 2200
      vertex -1107 -1104 400
      vertex -1107 -1104 2200
    endloop
  endfacet
  facet normal 1 -0 0
    outer loop
      vertex -1101 -1101 2200
      vertex -1101 1101 400
      vertex -1101 1101 2200
    endloop
  endfacet
  facet normal 1 0 0
    outer loop
      vertex -1101 1101 400
      vertex -1101 -1101 2200
      vertex -1101 -1101 400
    endloop
  endfacet
  facet normal 0 1 -0
    outer loop
      vertex -1104 1104 400
      vertex -1107 1104 2200
      vertex -1104 1104 2200
    endloop
  endfacet
  facet normal 0 1 0
    outer loop
      vertex -1107 1104 2200
      vertex -1104 1104 400
      vertex -1107 1104 400
    endloop
  endfacet
  facet normal 1 -0 0
    outer loop
      vertex 1104 -1107 2200
      vertex 1104 -1104 400
      vertex 1104 -1104 2200
    endloop
  endfacet
  facet normal 1 0 0
    outer loop
      vertex 1104 -1104 400
      vertex 1104 -1107 2200
      vertex 1104 -1107 400
    endloop
  endfacet
  facet normal 0 -1 0
    outer loop
      vertex -1104 -1107 400
      vertex 1104 -1107 2200
      vertex -1104 -1107 2200
    endloop
  endfacet
  facet normal 0 -1 -0
    outer loop
      vertex 1104 -1107 2200
      vertex -1104 -1107 400
      vertex 1104 -1107 400
    endloop
  endfacet
  facet normal 0 1 -0
    outer loop
      vertex 1101 -1101 400
      vertex -1101 -1101 2200
      vertex 1101 -1101 2200
    endloop
  endfacet
  facet normal 0 1 0
    outer loop
      vertex -1101 -1101 2200
      vertex 1101 -1101 400
      vertex -1101 -1101 400
    endloop
  endfacet
  facet normal -1 0 0
    outer loop
      vertex -1104 -1107 400
      vertex -1104 -1104 2200
      vertex -1104 -1104 400
    endloop
  endfacet
  facet normal -1 -0 0
    outer loop
      vertex -1104 -1104 2200
      vertex -1104 -1107 400
      vertex -1104 -1107 2200
    endloop
  endfacet
  facet normal 0 -1 0
    outer loop
      vertex 1104 -1104 400
      vertex 1107 -1104 2200
      vertex 1104 -1104 2200
    endloop
  endfacet
  facet normal 0 -1 -0
    outer loop
      vertex 1107 -1104 2200
      vertex 1104 -1104 400
      vertex 1107 -1104 400
    endloop
  endfacet
  facet normal 0 1 -0
    outer loop
      vertex 1107 1104 400
      vertex 1104 1104 2200
      vertex 1107 1104 2200
    endloop
  endfacet
  facet normal 0 1 0
    outer loop
      vertex 1104 1104 2200
      vertex 1107 1104 400
      vertex 1104 1104 400
    endloop
  endfacet
  facet normal 1 -0 0
    outer loop
      vertex 1107 -1104 2200
      vertex 1107 1104 400
      vertex 1107 1104 2200
    endloop
  endfacet
  facet normal 1 0 0
    outer loop
      vertex 1107 1104 400
      vertex 1107 -1104 2200
      vertex 1107 -1104 400
    endloop
  endfacet
  facet normal -1 0 0
    outer loop
      vertex 1101 -1101 400
      vertex 1101 1101 2200
      vertex 1101 1101 400
    endloop
  endfacet
  facet normal -1 -0 0
    outer loop
      vertex 1101 1101 2200
      vertex 1101 -1101 400
      vertex 1101 -1101 2200
    endloop
  endfacet
endsolid OpenSCAD_Model
