solid OpenSCAD_Model
  facet normal 1 -0 0
    outer loop
      vertex -948.5 -1088 2400
      vertex -948.5 -1082 2200
      vertex -948.5 -1082 2400
    endloop
  endfacet
  facet normal 1 0 0
    outer loop
      vertex -948.5 -1082 2200
      vertex -948.5 -1088 2400
      vertex -948.5 -1088 2200
    endloop
  endfacet
  facet normal -0 0 1
    outer loop
      vertex -971.5 -1082 2400
      vertex -948.5 -1088 2400
      vertex -948.5 -1082 2400
    endloop
  endfacet
  facet normal 0 0 1
    outer loop
      vertex -948.5 -1088 2400
      vertex -971.5 -1082 2400
      vertex -971.5 -1088 2400
    endloop
  endfacet
  facet normal 0 0 -1
    outer loop
      vertex -971.5 -1088 2200
      vertex -948.5 -1082 2200
      vertex -948.5 -1088 2200
    endloop
  endfacet
  facet normal -0 0 -1
    outer loop
      vertex -948.5 -1082 2200
      vertex -971.5 -1088 2200
      vertex -971.5 -1082 2200
    endloop
  endfacet
  facet normal -1 0 0
    outer loop
      vertex -971.5 -1088 2200
      vertex -971.5 -1082 2400
      vertex -971.5 -1082 2200
    endloop
  endfacet
  facet normal -1 -0 0
    outer loop
      vertex -971.5 -1082 2400
      vertex -971.5 -1088 2200
      vertex -971.5 -1088 2400
    endloop
  endfacet
  facet normal 0 1 -0
    outer loop
      vertex -948.5 -1082 2200
      vertex -971.5 -1082 2400
      vertex -948.5 -1082 2400
    endloop
  endfacet
  facet normal 0 1 0
    outer loop
      vertex -971.5 -1082 2400
      vertex -948.5 -1082 2200
      vertex -971.5 -1082 2200
    endloop
  endfacet
  facet normal 0 -1 0
    outer loop
      vertex -971.5 -1088 2200
      vertex -948.5 -1088 2400
      vertex -971.5 -1088 2400
    endloop
  endfacet
  facet normal 0 -1 -0
    outer loop
      vertex -948.5 -1088 2400
      vertex -971.5 -1088 2200
      vertex -948.5 -1088 2200
    endloop
  endfacet
  facet normal 1 -0 0
    outer loop
      vertex -948.5 1082 2400
      vertex -948.5 1088 2200
      vertex -948.5 1088 2400
    endloop
  endfacet
  facet normal 1 0 0
    outer loop
      vertex -948.5 1088 2200
      vertex -948.5 1082 2400
      vertex -948.5 1082 2200
    endloop
  endfacet
  facet normal -0 0 1
    outer loop
      vertex -971.5 1088 2400
      vertex -948.5 1082 2400
      vertex -948.5 1088 2400
    endloop
  endfacet
  facet normal 0 0 1
    outer loop
      vertex -948.5 1082 2400
      vertex -971.5 1088 2400
      vertex -971.5 1082 2400
    endloop
  endfacet
  facet normal 0 0 -1
    outer loop
      vertex -971.5 1082 2200
      vertex -948.5 1088 2200
      vertex -948.5 1082 2200
    endloop
  endfacet
  facet normal -0 0 -1
    outer loop
      vertex -948.5 1088 2200
      vertex -971.5 1082 2200
      vertex -971.5 1088 2200
    endloop
  endfacet
  facet normal -1 0 0
    outer loop
      vertex -971.5 1082 2200
      vertex -971.5 1088 2400
      vertex -971.5 1088 2200
    endloop
  endfacet
  facet normal -1 -0 0
    outer loop
      vertex -971.5 1088 2400
      vertex -971.5 1082 2200
      vertex -971.5 1082 2400
    endloop
  endfacet
  facet normal 0 1 -0
    outer loop
      vertex -948.5 1088 2200
      vertex -971.5 1088 2400
      vertex -948.5 1088 2400
    endloop
  endfacet
  facet normal 0 1 0
    outer loop
      vertex -971.5 1088 2400
      vertex -948.5 1088 2200
      vertex -971.5 1088 2200
    endloop
  endfacet
  facet normal 0 -1 0
    outer loop
      vertex -971.5 1082 2200
      vertex -948.5 1082 2400
      vertex -971.5 1082 2400
    endloop
  endfacet
  facet normal 0 -1 -0
    outer loop
      vertex -948.5 1082 2400
      vertex -971.5 1082 2200
      vertex -948.5 1082 2200
    endloop
  endfacet
  facet normal 1 -0 0
    outer loop
      vertex 971.5 -1088 2400
      vertex 971.5 -1082 2200
      vertex 971.5 -1082 2400
    endloop
  endfacet
  facet normal 1 0 0
    outer loop
      vertex 971.5 -1082 2200
      vertex 971.5 -1088 2400
      vertex 971.5 -1088 2200
    endloop
  endfacet
  facet normal -0 0 1
    outer loop
      vertex 948.5 -1082 2400
      vertex 971.5 -1088 2400
      vertex 971.5 -1082 2400
    endloop
  endfacet
  facet normal 0 0 1
    outer loop
      vertex 971.5 -1088 2400
      vertex 948.5 -1082 2400
      vertex 948.5 -1088 2400
    endloop
  endfacet
  facet normal 0 0 -1
    outer loop
      vertex 948.5 -1088 2200
      vertex 971.5 -1082 2200
      vertex 971.5 -1088 2200
    endloop
  endfacet
  facet normal -0 0 -1
    outer loop
      vertex 971.5 -1082 2200
      vertex 948.5 -1088 2200
      vertex 948.5 -1082 2200
    endloop
  endfacet
  facet normal -1 0 0
    outer loop
      vertex 948.5 -1088 2200
      vertex 948.5 -1082 2400
      vertex 948.5 -1082 2200
    endloop
  endfacet
  facet normal -1 -0 0
    outer loop
      vertex 948.5 -1082 2400
      vertex 948.5 -1088 2200
      vertex 948.5 -1088 2400
    endloop
  endfacet
  facet normal 0 1 -0
    outer loop
      vertex 971.5 -1082 2200
      vertex 948.5 -1082 2400
      vertex 971.5 -1082 2400
    endloop
  endfacet
  facet normal 0 1 0
    outer loop
      vertex 948.5 -1082 2400
      vertex 971.5 -1082 2200
      vertex 948.5 -1082 2200
    endloop
  endfacet
  facet normal 0 -1 0
    outer loop
      vertex 948.5 -1088 2200
      vertex 971.5 -1088 2400
      vertex 948.5 -1088 2400
    endloop
  endfacet
  facet normal 0 -1 -0
    outer loop
      vertex 971.5 -1088 2400
      vertex 948.5 -1088 2200
      vertex 971.5 -1088 2200
    endloop
  endfacet
  facet normal 1 -0 0
    outer loop
      vertex 971.5 1082 2400
      vertex 971.5 1088 2200
      vertex 971.5 1088 2400
    endloop
  endfacet
  facet normal 1 0 0
    outer loop
      vertex 971.5 1088 2200
      vertex 971.5 1082 2400
      vertex 971.5 1082 2200
    endloop
  endfacet
  facet normal -0 0 1
    outer loop
      vertex 948.5 1088 2400
      vertex 971.5 1082 2400
      vertex 971.5 1088 2400
    endloop
  endfacet
  facet normal 0 0 1
    outer loop
      vertex 971.5 1082 2400
      vertex 948.5 1088 2400
      vertex 948.5 1082 2400
    endloop
  endfacet
  facet normal 0 0 -1
    outer loop
      vertex 948.5 1082 2200
      vertex 971.5 1088 2200
      vertex 971.5 1082 2200
    endloop
  endfacet
  facet normal -0 0 -1
    outer loop
      vertex 971.5 1088 2200
      vertex 948.5 1082 2200
      vertex 948.5 1088 2200
    endloop
  endfacet
  facet normal -1 0 0
    outer loop
      vertex 948.5 1082 2200
      vertex 948.5 1088 2400
      vertex 948.5 1088 2200
    endloop
  endfacet
  facet normal -1 -0 0
    outer loop
      vertex 948.5 1088 2400
      vertex 948.5 1082 2200
      vertex 948.5 1082 2400
    endloop
  endfacet
  facet normal 0 1 -0
    outer loop
      vertex 971.5 1088 2200
      vertex 948.5 1088 2400
      vertex 971.5 1088 2400
    endloop
  endfacet
  facet normal 0 1 0
    outer loop
      vertex 948.5 1088 2400
      vertex 971.5 1088 2200
      vertex 948.5 1088 2200
    endloop
  endfacet
  facet normal 0 -1 0
    outer loop
      vertex 948.5 1082 2200
      vertex 971.5 1082 2400
      vertex 948.5 1082 2400
    endloop
  endfacet
  facet normal 0 -1 -0
    outer loop
      vertex 971.5 1082 2400
      vertex 948.5 1082 2200
      vertex 971.5 1082 2200
    endloop
  endfacet
endsolid OpenSCAD_Model
