solid OpenSCAD_Model
  facet normal 1 -0 0
    outer loop
      vertex -948.5 -1085 2403
      vertex -948.5 1085 2397
      vertex -948.5 1085 2403
    endloop
  endfacet
  facet normal 1 0 0
    outer loop
      vertex -948.5 1085 2397
      vertex -948.5 -1085 2403
      vertex -948.5 -1085 2397
    endloop
  endfacet
  facet normal -0 0 1
    outer loop
      vertex -971.5 1085 2403
      vertex -948.5 -1085 2403
      vertex -948.5 1085 2403
    endloop
  endfacet
  facet normal 0 0 1
    outer loop
      vertex -948.5 -1085 2403
      vertex -971.5 1085 2403
      vertex -971.5 -1085 2403
    endloop
  endfacet
  facet normal 0 0 -1
    outer loop
      vertex -971.5 -1085 2397
      vertex -948.5 1085 2397
      vertex -948.5 -1085 2397
    endloop
  endfacet
  facet normal -0 0 -1
    outer loop
      vertex -948.5 1085 2397
      vertex -971.5 -1085 2397
      vertex -971.5 1085 2397
    endloop
  endfacet
  facet normal -1 0 0
    outer loop
      vertex -971.5 -1085 2397
      vertex -971.5 1085 2403
      vertex -971.5 1085 2397
    endloop
  endfacet
  facet normal -1 -0 0
    outer loop
      vertex -971.5 1085 2403
      vertex -971.5 -1085 2397
      vertex -971.5 -1085 2403
    endloop
  endfacet
  facet normal 0 1 -0
    outer loop
      vertex -948.5 1085 2397
      vertex -971.5 1085 2403
      vertex -948.5 1085 2403
    endloop
  endfacet
  facet normal 0 1 0
    outer loop
      vertex -971.5 1085 2403
      vertex -948.5 1085 2397
      vertex -971.5 1085 2397
    endloop
  endfacet
  facet normal 0 -1 0
    outer loop
      vertex -971.5 -1085 2397
      vertex -948.5 -1085 2403
      vertex -971.5 -1085 2403
    endloop
  endfacet
  facet normal 0 -1 -0
    outer loop
      vertex -948.5 -1085 2403
      vertex -971.5 -1085 2397
      vertex -948.5 -1085 2397
    endloop
  endfacet
  facet normal 1 -0 0
    outer loop
      vertex 971.5 -1085 2403
      vertex 971.5 1085 2397
      vertex 971.5 1085 2403
    endloop
  endfacet
  facet normal 1 0 0
    outer loop
      vertex 971.5 1085 2397
      vertex 971.5 -1085 2403
      vertex 971.5 -1085 2397
    endloop
  endfacet
  facet normal -0 0 1
    outer loop
      vertex 948.5 1085 2403
      vertex 971.5 -1085 2403
      vertex 971.5 1085 2403
    endloop
  endfacet
  facet normal 0 0 1
    outer loop
      vertex 971.5 -1085 2403
      vertex 948.5 1085 2403
      vertex 948.5 -1085 2403
    endloop
  endfacet
  facet normal 0 0 -1
    outer loop
      vertex 948.5 -1085 2397
      vertex 971.5 1085 2397
      vertex 971.5 -1085 2397
    endloop
  endfacet
  facet normal -0 0 -1
    outer loop
      vertex 971.5 1085 2397
      vertex 948.5 -1085 2397
      vertex 948.5 1085 2397
    endloop
  endfacet
  facet normal -1 0 0
    outer loop
      vertex 948.5 -1085 2397
      vertex 948.5 1085 2403
      vertex 948.5 1085 2397
    endloop
  endfacet
  facet normal -1 -0 0
    outer loop
      vertex 948.5 1085 2403
      vertex 948.5 -1085 2397
      vertex 948.5 -1085 2403
    endloop
  endfacet
  facet normal 0 1 -0
    outer loop
      vertex 971.5 1085 2397
      vertex 948.5 1085 2403
      vertex 971.5 1085 2403
    endloop
  endfacet
  facet normal 0 1 0
    outer loop
      vertex 948.5 1085 2403
      vertex 971.5 1085 2397
      vertex 948.5 1085 2397
    endloop
  endfacet
  facet normal 0 -1 0
    outer loop
      vertex 948.5 -1085 2397
      vertex 971.5 -1085 2403
      vertex 948.5 -1085 2403
    endloop
  endfacet
  facet normal 0 -1 -0
    outer loop
      vertex 971.5 -1085 2403
      vertex 948.5 -1085 2397
      vertex 971.5 -1085 2397
    endloop
  endfacet
endsolid OpenSCAD_Model
