solid OpenSCAD_Model
  facet normal 1 -0 0
    outer loop
      vertex -732.5 1082 2655.86
      vertex -732.5 1088 2200
      vertex -732.5 1088 2655.86
    endloop
  endfacet
  facet normal 1 0 0
    outer loop
      vertex -732.5 1088 2200
      vertex -732.5 1082 2655.86
      vertex -732.5 1082 2200
    endloop
  endfacet
  facet normal -0 0 1
    outer loop
      vertex -755.5 1088 2655.86
      vertex -732.5 1082 2655.86
      vertex -732.5 1088 2655.86
    endloop
  endfacet
  facet normal 0 0 1
    outer loop
      vertex -732.5 1082 2655.86
      vertex -755.5 1088 2655.86
      vertex -755.5 1082 2655.86
    endloop
  endfacet
  facet normal 0 0 -1
    outer loop
      vertex -755.5 1082 2200
      vertex -732.5 1088 2200
      vertex -732.5 1082 2200
    endloop
  endfacet
  facet normal -0 0 -1
    outer loop
      vertex -732.5 1088 2200
      vertex -755.5 1082 2200
      vertex -755.5 1088 2200
    endloop
  endfacet
  facet normal -1 0 0
    outer loop
      vertex -755.5 1082 2200
      vertex -755.5 1088 2655.86
      vertex -755.5 1088 2200
    endloop
  endfacet
  facet normal -1 -0 0
    outer loop
      vertex -755.5 1088 2655.86
      vertex -755.5 1082 2200
      vertex -755.5 1082 2655.86
    endloop
  endfacet
  facet normal 0 1 -0
    outer loop
      vertex -732.5 1088 2200
      vertex -755.5 1088 2655.86
      vertex -732.5 1088 2655.86
    endloop
  endfacet
  facet normal 0 1 0
    outer loop
      vertex -755.5 1088 2655.86
      vertex -732.5 1088 2200
      vertex -755.5 1088 2200
    endloop
  endfacet
  facet normal 0 -1 0
    outer loop
      vertex -755.5 1082 2200
      vertex -732.5 1082 2655.86
      vertex -755.5 1082 2655.86
    endloop
  endfacet
  facet normal 0 -1 -0
    outer loop
      vertex -732.5 1082 2655.86
      vertex -755.5 1082 2200
      vertex -732.5 1082 2200
    endloop
  endfacet
  facet normal 1 -0 0
    outer loop
      vertex 755.5 1082 2655.86
      vertex 755.5 1088 2200
      vertex 755.5 1088 2655.86
    endloop
  endfacet
  facet normal 1 0 0
    outer loop
      vertex 755.5 1088 2200
      vertex 755.5 1082 2655.86
      vertex 755.5 1082 2200
    endloop
  endfacet
  facet normal -0 0 1
    outer loop
      vertex 732.5 1088 2655.86
      vertex 755.5 1082 2655.86
      vertex 755.5 1088 2655.86
    endloop
  endfacet
  facet normal 0 0 1
    outer loop
      vertex 755.5 1082 2655.86
      vertex 732.5 1088 2655.86
      vertex 732.5 1082 2655.86
    endloop
  endfacet
  facet normal 0 0 -1
    outer loop
      vertex 732.5 1082 2200
      vertex 755.5 1088 2200
      vertex 755.5 1082 2200
    endloop
  endfacet
  facet normal -0 0 -1
    outer loop
      vertex 755.5 1088 2200
      vertex 732.5 1082 2200
      vertex 732.5 1088 2200
    endloop
  endfacet
  facet normal -1 0 0
    outer loop
      vertex 732.5 1082 2200
      vertex 732.5 1088 2655.86
      vertex 732.5 1088 2200
    endloop
  endfacet
  facet normal -1 -0 0
    outer loop
      vertex 732.5 1088 2655.86
      vertex 732.5 1082 2200
      vertex 732.5 1082 2655.86
    endloop
  endfacet
  facet normal 0 1 -0
    outer loop
      vertex 755.5 1088 2200
      vertex 732.5 1088 2655.86
      vertex 755.5 1088 2655.86
    endloop
  endfacet
  facet normal 0 1 0
    outer loop
      vertex 732.5 1088 2655.86
      vertex 755.5 1088 2200
      vertex 732.5 1088 2200
    endloop
  endfacet
  facet normal 0 -1 0
    outer loop
      vertex 732.5 1082 2200
      vertex 755.5 1082 2655.86
      vertex 732.5 1082 2655.86
    endloop
  endfacet
  facet normal 0 -1 -0
    outer loop
      vertex 755.5 1082 2655.86
      vertex 732.5 1082 2200
      vertex 755.5 1082 2200
    endloop
  endfacet
endsolid OpenSCAD_Model
