solid OpenSCAD_Model
  facet normal 1 -0 0
    outer loop
      vertex -688.5 -1088 3460.83
      vertex -688.5 -1082 1680
      vertex -688.5 -1082 3460.83
    endloop
  endfacet
  facet normal 1 0 0
    outer loop
      vertex -688.5 -1082 1680
      vertex -688.5 -1088 3460.83
      vertex -688.5 -1088 1680
    endloop
  endfacet
  facet normal -0 0 1
    outer loop
      vertex -711.5 -1082 3460.83
      vertex -688.5 -1088 3460.83
      vertex -688.5 -1082 3460.83
    endloop
  endfacet
  facet normal 0 0 1
    outer loop
      vertex -688.5 -1088 3460.83
      vertex -711.5 -1082 3460.83
      vertex -711.5 -1088 3460.83
    endloop
  endfacet
  facet normal 0 0 -1
    outer loop
      vertex -711.5 -1088 1680
      vertex -688.5 -1082 1680
      vertex -688.5 -1088 1680
    endloop
  endfacet
  facet normal -0 0 -1
    outer loop
      vertex -688.5 -1082 1680
      vertex -711.5 -1088 1680
      vertex -711.5 -1082 1680
    endloop
  endfacet
  facet normal -1 0 0
    outer loop
      vertex -711.5 -1088 1680
      vertex -711.5 -1082 3460.83
      vertex -711.5 -1082 1680
    endloop
  endfacet
  facet normal -1 -0 0
    outer loop
      vertex -711.5 -1082 3460.83
      vertex -711.5 -1088 1680
      vertex -711.5 -1088 3460.83
    endloop
  endfacet
  facet normal 0 1 -0
    outer loop
      vertex -688.5 -1082 1680
      vertex -711.5 -1082 3460.83
      vertex -688.5 -1082 3460.83
    endloop
  endfacet
  facet normal 0 1 0
    outer loop
      vertex -711.5 -1082 3460.83
      vertex -688.5 -1082 1680
      vertex -711.5 -1082 1680
    endloop
  endfacet
  facet normal 0 -1 0
    outer loop
      vertex -711.5 -1088 1680
      vertex -688.5 -1088 3460.83
      vertex -711.5 -1088 3460.83
    endloop
  endfacet
  facet normal 0 -1 -0
    outer loop
      vertex -688.5 -1088 3460.83
      vertex -711.5 -1088 1680
      vertex -688.5 -1088 1680
    endloop
  endfacet
  facet normal 1 -0 0
    outer loop
      vertex 711.5 -1088 3460.83
      vertex 711.5 -1082 1680
      vertex 711.5 -1082 3460.83
    endloop
  endfacet
  facet normal 1 0 0
    outer loop
      vertex 711.5 -1082 1680
      vertex 711.5 -1088 3460.83
      vertex 711.5 -1088 1680
    endloop
  endfacet
  facet normal -0 0 1
    outer loop
      vertex 688.5 -1082 3460.83
      vertex 711.5 -1088 3460.83
      vertex 711.5 -1082 3460.83
    endloop
  endfacet
  facet normal 0 0 1
    outer loop
      vertex 711.5 -1088 3460.83
      vertex 688.5 -1082 3460.83
      vertex 688.5 -1088 3460.83
    endloop
  endfacet
  facet normal 0 0 -1
    outer loop
      vertex 688.5 -1088 1680
      vertex 711.5 -1082 1680
      vertex 711.5 -1088 1680
    endloop
  endfacet
  facet normal -0 0 -1
    outer loop
      vertex 711.5 -1082 1680
      vertex 688.5 -1088 1680
      vertex 688.5 -1082 1680
    endloop
  endfacet
  facet normal -1 0 0
    outer loop
      vertex 688.5 -1088 1680
      vertex 688.5 -1082 3460.83
      vertex 688.5 -1082 1680
    endloop
  endfacet
  facet normal -1 -0 0
    outer loop
      vertex 688.5 -1082 3460.83
      vertex 688.5 -1088 1680
      vertex 688.5 -1088 3460.83
    endloop
  endfacet
  facet normal 0 1 -0
    outer loop
      vertex 711.5 -1082 1680
      vertex 688.5 -1082 3460.83
      vertex 711.5 -1082 3460.83
    endloop
  endfacet
  facet normal 0 1 0
    outer loop
      vertex 688.5 -1082 3460.83
      vertex 711.5 -1082 1680
      vertex 688.5 -1082 1680
    endloop
  endfacet
  facet normal 0 -1 0
    outer loop
      vertex 688.5 -1088 1680
      vertex 711.5 -1088 3460.83
      vertex 688.5 -1088 3460.83
    endloop
  endfacet
  facet normal 0 -1 -0
    outer loop
      vertex 711.5 -1088 3460.83
      vertex 688.5 -1088 1680
      vertex 711.5 -1088 1680
    endloop
  endfacet
endsolid OpenSCAD_Model
